<?xml version="1.0" encoding="UTF-8"?>
<!DOCTYPE svg PUBLIC "-//W3C//DTD SVG 1.1//EN" "http://www.w3.org/Graphics/SVG/1.1/DTD/svg11.dtd">
<svg xmlns="http://www.w3.org/2000/svg" version="1.1" width="150px" height="25px" style="shape-rendering:geometricPrecision; text-rendering:geometricPrecision; image-rendering:optimizeQuality; fill-rule:evenodd; clip-rule:evenodd" xmlns:xlink="http://www.w3.org/1999/xlink">
<g><path style="opacity:0.938" fill="#09a10e" d="M 0.5,-0.5 C 7.83333,-0.5 15.1667,-0.5 22.5,-0.5C 22.7828,0.28913 23.2828,0.955796 24,1.5C 24.6667,8.16667 24.6667,14.8333 24,21.5C 23.3021,22.6906 22.4687,23.6906 21.5,24.5C 14.8333,24.5 8.16667,24.5 1.5,24.5C 1.16667,23.5 0.5,22.8333 -0.5,22.5C -0.5,15.1667 -0.5,7.83333 -0.5,0.5C 0.166667,0.5 0.5,0.166667 0.5,-0.5 Z"/></g>
<g><path style="opacity:0.651" fill="#fffefe" d="M 31.5,6.5 C 37.6905,8.13377 39.0238,11.6338 35.5,17C 33.2305,17.7581 31.0639,17.5914 29,16.5C 28.3333,13.8333 28.3333,11.1667 29,8.5C 29.9947,7.93406 30.828,7.26739 31.5,6.5 Z M 31.5,9.5 C 35.8815,10.5868 36.3815,12.5868 33,15.5C 31.9412,15.3699 31.1079,14.8699 30.5,14C 31.3802,12.6439 31.7135,11.1439 31.5,9.5 Z"/></g>
<g><path style="opacity:0.757" fill="#fefffe" d="M 38.5,7.5 C 41.3467,7.78239 44.0134,7.78239 46.5,7.5C 47.9337,8.9358 49.1004,10.6025 50,12.5C 50.0027,8.11781 52.1694,6.45115 56.5,7.5C 56.1669,19.8623 55.3336,20.1956 54,8.5C 52.8551,11.4318 52.0218,14.4318 51.5,17.5C 50.1667,17.5 48.8333,17.5 47.5,17.5C 46.4442,8.52457 45.4442,8.3579 44.5,17C 42.5273,17.4955 40.5273,17.6621 38.5,17.5C 38.5,14.1667 38.5,10.8333 38.5,7.5 Z M 40.5,9.5 C 42.337,9.63945 42.6704,10.3061 41.5,11.5C 40.7025,11.0431 40.3691,10.3764 40.5,9.5 Z M 40.5,13.5 C 42.9828,13.73 43.4828,14.3966 42,15.5C 40.9701,15.1639 40.4701,14.4972 40.5,13.5 Z"/></g>
<g><path style="opacity:0.695" fill="#fefffe" d="M 59.5,7.5 C 67.4863,6.99804 69.4863,10.1647 65.5,17C 63.2305,17.7581 61.0639,17.5914 59,16.5C 58.2642,13.408 58.4309,10.408 59.5,7.5 Z M 61.5,9.5 C 65.8815,10.5868 66.3815,12.5868 63,15.5C 60.3266,14.1417 59.8266,12.1417 61.5,9.5 Z"/></g>
<g><path style="opacity:0.8" fill="#fefffe" d="M 68.5,7.5 C 69.9327,10.0384 71.266,12.705 72.5,15.5C 73.086,15.2907 73.586,14.9574 74,14.5C 74.1858,12.0995 74.6858,9.76618 75.5,7.5C 76.7874,10.7087 76.7874,13.8753 75.5,17C 73.2305,17.7581 71.0639,17.5914 69,16.5C 68.502,13.5184 68.3354,10.5184 68.5,7.5 Z"/></g>
<g><path style="opacity:0.668" fill="#fefffe" d="M 78.5,7.5 C 84.2611,7.70885 84.5945,8.54218 79.5,10C 82.9414,11.3184 84.2747,13.8184 83.5,17.5C 81.396,17.7989 79.396,17.4656 77.5,16.5C 82.6387,15.8033 82.8054,14.47 78,12.5C 77.3603,10.735 77.5269,9.06831 78.5,7.5 Z"/></g>
<g><path style="opacity:0.681" fill="#fefffe" d="M 89.5,7.5 C 93.8246,8.64608 98.158,8.81275 102.5,8C 104.444,10.1529 104.944,12.6529 104,15.5C 102.874,16.9436 101.374,17.6102 99.5,17.5C 96.3026,17.1719 92.9693,17.0052 89.5,17C 86.8881,13.8359 86.8881,10.6693 89.5,7.5 Z M 90.5,9.5 C 92.1667,9.5 93.8333,9.5 95.5,9.5C 95.5,11.5 95.5,13.5 95.5,15.5C 90.4673,16.0623 88.8007,14.0623 90.5,9.5 Z M 98.5,9.5 C 102.882,10.5868 103.382,12.5868 100,15.5C 97.3266,14.1417 96.8266,12.1417 98.5,9.5 Z"/></g>
<g><path style="opacity:0.769" fill="#fefffe" d="M 105.5,7.5 C 108.292,7.45206 110.125,8.78539 111,11.5C 111.49,10.2068 111.657,8.87344 111.5,7.5C 114.898,7.17964 118.232,7.51298 121.5,8.5C 120.675,9.38568 119.675,9.71901 118.5,9.5C 117.833,20.1667 117.167,20.1667 116.5,9.5C 115.5,9.5 114.5,9.5 113.5,9.5C 113.5,12.1667 113.5,14.8333 113.5,17.5C 110.566,16.7106 108.732,14.7106 108,11.5C 107.808,13.5767 107.308,15.5767 106.5,17.5C 105.513,14.2317 105.18,10.8984 105.5,7.5 Z"/></g>
<g><path style="opacity:0.748" fill="#fefffe" d="M 122.5,7.5 C 124.792,7.24358 126.959,7.57692 129,8.5C 128.585,11.5344 128.418,14.5344 128.5,17.5C 127.108,16.3947 125.941,15.0614 125,13.5C 124.781,14.938 124.281,16.2713 123.5,17.5C 122.513,14.2317 122.18,10.8984 122.5,7.5 Z M 124.5,9.5 C 126.337,9.63945 126.67,10.3061 125.5,11.5C 124.702,11.0431 124.369,10.3764 124.5,9.5 Z"/></g>
<g><path style="opacity:0.695" fill="#fefffe" d="M 131.5,7.5 C 139.486,6.99804 141.486,10.1647 137.5,17C 135.231,17.7581 133.064,17.5914 131,16.5C 130.264,13.408 130.431,10.408 131.5,7.5 Z M 133.5,9.5 C 137.882,10.5868 138.382,12.5868 135,15.5C 132.327,14.1417 131.827,12.1417 133.5,9.5 Z"/></g>
<g><path style="opacity:0.836" fill="#fefffe" d="M 140.5,7.5 C 142.369,9.63528 143.036,12.3019 142.5,15.5C 143.978,15.238 145.311,15.5713 146.5,16.5C 144.604,17.4656 142.604,17.7989 140.5,17.5C 140.5,14.1667 140.5,10.8333 140.5,7.5 Z"/></g>
<g><path style="opacity:1" fill="#eef8ee" d="M 10.5,10.5 C 9.50838,10.3284 8.84171,10.6618 8.5,11.5C 6.05762,11.6463 5.39095,10.813 6.5,9C 8.35236,8.2274 9.68569,8.7274 10.5,10.5 Z"/></g>
<g><path style="opacity:1" fill="#e4f4e3" d="M 8.5,11.5 C 8.84171,10.6618 9.50838,10.3284 10.5,10.5C 12.588,9.06054 14.9214,8.39387 17.5,8.5C 17.5,9.5 17.5,10.5 17.5,11.5C 14.4585,11.5513 11.7918,12.5513 9.5,14.5C 6.20741,13.9468 5.87408,12.9468 8.5,11.5 Z"/></g>
<g><path style="opacity:1" fill="#e7f6e7" d="M 14.5,12.5 C 17.999,12.259 18.3323,13.0924 15.5,15C 14.5,15.6667 13.5,15.6667 12.5,15C 13.3805,14.2917 14.0472,13.4584 14.5,12.5 Z"/></g>
</svg>
