<?xml version="1.0" encoding="UTF-8"?>
<!DOCTYPE svg PUBLIC "-//W3C//DTD SVG 1.1//EN" "http://www.w3.org/Graphics/SVG/1.1/DTD/svg11.dtd">
<svg xmlns="http://www.w3.org/2000/svg" version="1.1" width="82px" height="82px" style="shape-rendering:geometricPrecision; text-rendering:geometricPrecision; image-rendering:optimizeQuality; fill-rule:evenodd; clip-rule:evenodd" xmlns:xlink="http://www.w3.org/1999/xlink">
<g><path style="opacity:0.971" fill="#fefefe" d="M 31.5,-0.5 C 37.5,-0.5 43.5,-0.5 49.5,-0.5C 65.3971,4.39654 76.0637,14.7299 81.5,30.5C 81.5,37.1667 81.5,43.8333 81.5,50.5C 76.5,66.1667 66.1667,76.5 50.5,81.5C 43.8333,81.5 37.1667,81.5 30.5,81.5C 14.7299,76.0637 4.39654,65.3971 -0.5,49.5C -0.5,43.5 -0.5,37.5 -0.5,31.5C 4.5,15.1667 15.1667,4.5 31.5,-0.5 Z"/></g>
<g><path style="opacity:1" fill="#9fc042" d="M 35.5,33.5 C 36.3234,28.6606 34.3234,26.3272 29.5,26.5C 38.4626,19.6727 47.2959,20.0061 56,27.5C 60.2185,34.2323 58.3852,37.399 50.5,37C 46.5207,31.338 41.5207,30.1714 35.5,33.5 Z"/></g>
<g><path style="opacity:1" fill="#7aa928" d="M 29.5,26.5 C 34.3234,26.3272 36.3234,28.6606 35.5,33.5C 32.3923,37.045 31.7256,41.045 33.5,45.5C 34.0803,49.649 33.4136,53.3157 31.5,56.5C 21.8289,49.1919 19.9955,40.1919 26,29.5C 27.0391,28.2899 28.2058,27.2899 29.5,26.5 Z"/></g>
<g><path style="opacity:1" fill="#8ab334" d="M 31.5,56.5 C 33.4136,53.3157 34.0803,49.649 33.5,45.5C 35.6024,47.8846 38.2691,49.2179 41.5,49.5C 45.7451,47.9045 49.7451,45.9045 53.5,43.5C 58.6623,44.6981 59.8289,47.6981 57,52.5C 49.3958,60.1412 40.8958,61.4746 31.5,56.5 Z"/></g>
</svg>
